ffmpeg version 3.4.8-0ubuntu0.2 Copyright (c) 2000-2020 the FFmpeg developers
  built with gcc 7 (Ubuntu 7.5.0-3ubuntu1~18.04)
  configuration: --prefix=/usr --extra-version=0ubuntu0.2 --toolchain=hardened --libdir=/usr/lib/x86_64-linux-gnu --incdir=/usr/include/x86_64-linux-gnu --enable-gpl --disable-stripping --enable-avresample --enable-avisynth --enable-gnutls --enable-ladspa --enable-libass --enable-libbluray --enable-libbs2b --enable-libcaca --enable-libcdio --enable-libflite --enable-libfontconfig --enable-libfreetype --enable-libfribidi --enable-libgme --enable-libgsm --enable-libmp3lame --enable-libmysofa --enable-libopenjpeg --enable-libopenmpt --enable-libopus --enable-libpulse --enable-librubberband --enable-librsvg --enable-libshine --enable-libsnappy --enable-libsoxr --enable-libspeex --enable-libssh --enable-libtheora --enable-libtwolame --enable-libvorbis --enable-libvpx --enable-libwavpack --enable-libwebp --enable-libx265 --enable-libxml2 --enable-libxvid --enable-libzmq --enable-libzvbi --enable-omx --enable-openal --enable-opengl --enable-sdl2 --enable-libdc1394 --enable-libdrm --enable-libiec61883 --enable-chromaprint --enable-frei0r --enable-libopencv --enable-libx264 --enable-shared
  libavutil      55. 78.100 / 55. 78.100
  libavcodec     57.107.100 / 57.107.100
  libavformat    57. 83.100 / 57. 83.100
  libavdevice    57. 10.100 / 57. 10.100
  libavfilter     6.107.100 /  6.107.100
  libavresample   3.  7.  0 /  3.  7.  0
  libswscale      4.  8.100 /  4.  8.100
  libswresample   2.  9.100 /  2.  9.100
  libpostproc    54.  7.100 / 54.  7.100
[rawvideo @ 0x561628295a20] Estimating duration from bitrate, this may be inaccurate
Input #0, rawvideo, from '../../SVC-Encoder-20220109T061506Z-001/SVC-Encoder/Dataset/RollerCoaster/6f_2x2/tile_yuv/f5_t2_480x480.yuv':
  Duration: 00:00:10.00, start: 0.000000, bitrate: 82944 kb/s
    Stream #0:0: Video: rawvideo (I420 / 0x30323449), yuv420p, 480x480, 82944 kb/s, 30 tbr, 30 tbn, 30 tbc
Stream mapping:
  Stream #0:0 -> #0:0 (rawvideo (native) -> h264 (libx264))
Press [q] to stop, [?] for help
[libx264 @ 0x5616282a2c60] using cpu capabilities: MMX2 SSE2Fast LZCNT SSSE3 SSE4.2 AVX
[libx264 @ 0x5616282a2c60] profile High, level 3.0
Output #0, rawvideo, to 'RollerCoaster_f5_t2_480x480_x264_QP_36.h264':
  Metadata:
    encoder         : Lavf57.83.100
    Stream #0:0: Video: h264 (libx264), yuv420p, 480x480, q=-1--1, 30 fps, 30 tbn, 30 tbc
    Metadata:
      encoder         : Lavc57.107.100 libx264
    Side data:
      cpb: bitrate max/min/avg: 0/0/0 buffer size: 0 vbv_delay: -1
frame=  134 fps=0.0 q=42.0 PSNR=Y:nan U:nan V:nan *:nan size=      45kB time=00:00:03.03 bitrate= 120.6kbits/s speed=6.04x    frame=  232 fps=230 q=42.0 PSNR=Y:nan U:nan V:nan *:nan size=      92kB time=00:00:06.30 bitrate= 120.1kbits/s speed=6.25x    frame=  300 fps=202 q=42.0 LPSNR=Y:inf U:inf V:inf *:inf size=     144kB time=00:00:09.93 bitrate= 118.7kbits/s speed= 6.7x    
video:144kB audio:0kB subtitle:0kB other streams:0kB global headers:0kB muxing overhead: 0.000000%
[libx264 @ 0x5616282a2c60] frame I:2     Avg QP:35.12  size:  8290  PSNR Mean Y:33.67 U:41.70 V:44.62 Avg:35.18 Global:35.12
[libx264 @ 0x5616282a2c60] frame P:76    Avg QP:37.24  size:  1038  PSNR Mean Y:32.26 U:41.48 V:44.37 Avg:33.83 Global:33.81
[libx264 @ 0x5616282a2c60] frame B:222   Avg QP:41.63  size:   234  PSNR Mean Y:32.03 U:41.38 V:44.34 Avg:33.60 Global:33.59
[libx264 @ 0x5616282a2c60] consecutive B-frames:  1.3%  0.0%  0.0% 98.7%
[libx264 @ 0x5616282a2c60] mb I  I16..4: 22.2% 75.3%  2.5%
[libx264 @ 0x5616282a2c60] mb P  I16..4:  1.8%  2.1%  0.2%  P16..4: 34.1%  2.5%  0.4%  0.0%  0.0%    skip:58.8%
[libx264 @ 0x5616282a2c60] mb B  I16..4:  0.0%  0.0%  0.0%  B16..8: 18.4%  0.7%  0.0%  direct: 0.0%  skip:80.8%  L0:35.4% L1:64.5% BI: 0.1%
[libx264 @ 0x5616282a2c60] 8x8 transform intra:60.8% inter:90.6%
[libx264 @ 0x5616282a2c60] coded y,uvDC,uvAC intra: 40.9% 45.0% 9.0% inter: 2.0% 1.2% 0.0%
[libx264 @ 0x5616282a2c60] i16 v,h,dc,p: 10% 53% 23% 14%
[libx264 @ 0x5616282a2c60] i8 v,h,dc,ddl,ddr,vr,hd,vl,hu:  5% 25% 29%  6%  9% 11%  4%  4%  8%
[libx264 @ 0x5616282a2c60] i4 v,h,dc,ddl,ddr,vr,hd,vl,hu:  6% 19% 37%  5% 11% 14%  3%  1%  4%
[libx264 @ 0x5616282a2c60] i8c dc,h,v,p: 58% 31%  6%  5%
[libx264 @ 0x5616282a2c60] Weighted P-Frames: Y:1.3% UV:1.3%
[libx264 @ 0x5616282a2c60] ref P L0: 59.1% 17.5% 14.0%  9.1%  0.3%
[libx264 @ 0x5616282a2c60] ref B L0: 85.6% 11.9%  2.4%
[libx264 @ 0x5616282a2c60] ref B L1: 87.1% 12.9%
[libx264 @ 0x5616282a2c60] PSNR Mean Y:32.098 U:41.404 V:44.351 Avg:33.670 Global:33.654 kb/s:117.94
